<svg width="30" height="22" viewBox="0 0 30 22" fill="none" xmlns="http://www.w3.org/2000/svg">
<path d="M28 0H2C0.9 0 0 0.9 0 2V20C0 21.1 0.9 22 2 22H28C29.1 22 30 21.1 30 20V2C30 0.9 29.1 0 28 0ZM28 2V10.8C25.9 8.9 22.5 6.1 20.3 6.1C20.3 6.1 20.3 6.1 20.2 6.1C18.4 6.1 16.7 7.9 15 9.7C13.9 10.8 12.8 11.9 12.1 12.3C11.4 12.6 9.8 12.4 8.5 12.3C7.1 12.2 5.8 12 4.8 12.3C4.1 12.3 3 12.9 2 13.4V2H28ZM2 20V15.7C3.2 15 4.6 14.2 5.2 14.1C5.9 13.9 7.1 14.1 8.3 14.2C10 14.4 11.7 14.5 12.9 14.1C14.1 13.6 15.3 12.4 16.5 11.1C17.8 9.8 19.3 8.2 20.3 8.1C21.8 8.1 25.5 11.2 27.9 13.6V20H2Z" fill="black"/>
<path d="M9.6 9.89995C11.3 9.89995 12.7 8.49995 12.7 6.79995C12.7 5.09995 11.3 3.69995 9.6 3.69995C7.9 3.69995 6.5 5.09995 6.5 6.79995C6.5 8.49995 7.9 9.89995 9.6 9.89995ZM9.6 5.69995C10.2 5.69995 10.7 6.19995 10.7 6.79995C10.7 7.39995 10.2 7.89995 9.6 7.89995C9 7.89995 8.5 7.39995 8.5 6.79995C8.5 6.19995 9 5.69995 9.6 5.69995Z" fill="black"/>
</svg>
