<svg width="55" height="69" viewBox="0 0 55 69" fill="none" xmlns="http://www.w3.org/2000/svg">
<path d="M47.0018 12.4075L45.1496 62.4148C45.1178 63.2731 44.3619 64 43.5 64H11.5001C10.639 64 9.88213 63.2704 9.85044 62.4148L7.99832 12.4075C7.94722 11.0277 6.78727 9.95064 5.4075 10.0017C4.02774 10.0528 2.95064 11.2128 3.00175 12.5926L4.85387 62.5999C4.98508 66.1426 7.94912 69 11.5001 69H43.5C47.0491 69 50.0148 66.148 50.1462 62.5999L51.9983 12.5926C52.0494 11.2128 50.9723 10.0528 49.5926 10.0017C48.2128 9.95064 47.0529 11.0277 47.0018 12.4075Z" fill="black"/>
<path d="M25.5 22.5V56.5C25.5 57.6046 26.3954 58.5 27.5 58.5C28.6046 58.5 29.5 57.6046 29.5 56.5V22.5C29.5 21.3954 28.6046 20.5 27.5 20.5C26.3954 20.5 25.5 21.3954 25.5 22.5Z" fill="black"/>
<path d="M14.5009 22.5588L15.5009 56.5588C15.5334 57.6629 16.4547 58.5316 17.5588 58.4992C18.6629 58.4667 19.5316 57.5453 19.4991 56.4412L18.4991 22.4412C18.4667 21.3371 17.5453 20.4684 16.4412 20.5009C15.3371 20.5334 14.4684 21.4547 14.5009 22.5588Z" fill="black"/>
<path d="M36.5009 22.4412L35.5009 56.4412C35.4684 57.5453 36.3371 58.4667 37.4412 58.4992C38.5453 58.5316 39.4667 57.6629 39.4991 56.5588L40.4991 22.5588C40.5316 21.4547 39.6629 20.5334 38.5588 20.5009C37.4547 20.4684 36.5334 21.3371 36.5009 22.4412Z" fill="black"/>
<path d="M2.5 13.5H52.5C53.8807 13.5 55 12.3807 55 11C55 9.61929 53.8807 8.5 52.5 8.5H2.5C1.11929 8.5 0 9.61929 0 11C0 12.3807 1.11929 13.5 2.5 13.5Z" fill="black"/>
<path d="M19.9038 10.1868L20.9448 6.54328C21.1678 5.76291 22.1794 5 22.9915 5H32.0085C32.8212 5 33.832 5.76226 34.0552 6.54328L35.0962 10.1868L39.9038 8.8132L38.8628 5.16968C38.0263 2.24183 35.0532 0 32.0085 0H22.9915C19.9471 0 16.9735 2.24264 16.1372 5.16968L15.0962 8.8132L19.9038 10.1868Z" fill="black"/>
</svg>
