<svg width="81" height="90" viewBox="0 0 81 90" fill="none" xmlns="http://www.w3.org/2000/svg">
<path d="M2.75002 0.0103558C1.99849 0.0732669 1.29822 0.416893 0.788616 0.972822C0.279015 1.52875 -0.00253596 2.2562 1.72136e-05 3.01036V81.0104C0.00448118 81.5948 0.179522 82.1651 0.503642 82.6514C0.827762 83.1377 1.28685 83.5188 1.82453 83.7478C2.3622 83.9768 2.95505 84.0438 3.53028 83.9405C4.1055 83.8373 4.63805 83.5683 5.06252 83.1666L16.7188 72.1666L23.2188 88.1354C23.5174 88.8653 24.0913 89.4483 24.8165 89.7583C25.5417 90.0683 26.3598 90.0802 27.0938 89.7916L45.0938 82.7916C45.4618 82.6469 45.7975 82.4308 46.0817 82.1558C46.3659 81.8808 46.593 81.5524 46.7498 81.1894C46.9066 80.8264 46.9901 80.4359 46.9955 80.0405C47.0009 79.6451 46.9281 79.2525 46.7813 78.8854L40.4375 63.0104H57C57.5871 63.012 58.1617 62.8413 58.6527 62.5196C59.1438 62.1978 59.5296 61.739 59.7625 61.2001C59.9953 60.6612 60.065 60.0659 59.9628 59.4878C59.8606 58.9097 59.591 58.3743 59.1875 57.9479L5.18752 0.947856C4.87815 0.61799 4.49822 0.362327 4.07612 0.199983C3.65403 0.0376394 3.20069 -0.0271852 2.75002 0.0103558ZM6.00002 10.5416L50.0313 57.0104H36C35.5127 57.0124 35.0332 57.1332 34.603 57.3621C34.1728 57.5911 33.8048 57.9215 33.531 58.3246C33.2571 58.7277 33.0856 59.1914 33.0312 59.6757C32.9768 60.16 33.0412 60.6503 33.2188 61.1041L40.0938 78.2916L27.6563 83.1354L20.625 65.8541C20.4427 65.4006 20.1524 64.9984 19.7792 64.6827C19.4061 64.3669 18.9615 64.1471 18.484 64.0424C18.0066 63.9377 17.5108 63.9512 17.0397 64.0817C16.5687 64.2123 16.1367 64.456 15.7813 64.7916L6.00002 74.0416V10.5416ZM42.6875 17.0104C42.2935 17.0308 41.9074 17.1287 41.5512 17.2984C41.195 17.4681 40.8757 17.7063 40.6116 17.9994C40.3475 18.2924 40.1437 18.6347 40.0119 19.0066C39.88 19.3784 39.8227 19.7726 39.8432 20.1666C39.8638 20.5606 39.9617 20.9467 40.1315 21.3029C40.3012 21.6591 40.5395 21.9783 40.8326 22.2424C41.1257 22.5064 41.468 22.7102 41.8399 22.8419C42.2118 22.9737 42.606 23.0309 43 23.0104H77C77.3976 23.016 77.7922 22.9425 78.1611 22.7943C78.5301 22.6461 78.8658 22.426 79.1489 22.1468C79.432 21.8677 79.6568 21.5351 79.8103 21.1683C79.9637 20.8015 80.0427 20.4079 80.0427 20.0104C80.0427 19.6128 79.9637 19.2192 79.8103 18.8524C79.6568 18.4856 79.432 18.153 79.1489 17.8739C78.8658 17.5947 78.5301 17.3747 78.1611 17.2264C77.7922 17.0782 77.3976 17.0047 77 17.0104H43C42.8959 17.0049 42.7916 17.0049 42.6875 17.0104Z" fill="black"/>
</svg>
