<svg width="20" height="20" viewBox="0 0 20 20" fill="none" xmlns="http://www.w3.org/2000/svg">
<path fill-rule="evenodd" clip-rule="evenodd" d="M9.2929 0.29289C9.6834 -0.09763 10.3166 -0.09763 10.7071 0.29289L14.7071 4.29289C15.0976 4.68342 15.0976 5.31658 14.7071 5.70711C14.3166 6.09763 13.6834 6.09763 13.2929 5.70711L11 3.41421V13C11 13.5523 10.5523 14 10 14C9.4477 14 9 13.5523 9 13V3.41421L6.70711 5.70711C6.31658 6.09763 5.68342 6.09763 5.29289 5.70711C4.90237 5.31658 4.90237 4.68342 5.29289 4.29289L9.2929 0.29289ZM1 9C1.55229 9 2 9.4477 2 10V14.2C2 15.0566 2.00078 15.6389 2.03755 16.089C2.07337 16.5274 2.1383 16.7516 2.21799 16.908C2.40974 17.2843 2.7157 17.5903 3.09202 17.782C3.24842 17.8617 3.47262 17.9266 3.91104 17.9624C4.36113 17.9992 4.94342 18 5.8 18H14.2C15.0566 18 15.6389 17.9992 16.089 17.9624C16.5274 17.9266 16.7516 17.8617 16.908 17.782C17.2843 17.5903 17.5903 17.2843 17.782 16.908C17.8617 16.7516 17.9266 16.5274 17.9625 16.089C17.9992 15.6389 18 15.0566 18 14.2V10C18 9.4477 18.4477 9 19 9C19.5523 9 20 9.4477 20 10V14.2413C20 15.0463 20 15.7106 19.9558 16.2518C19.9099 16.8139 19.8113 17.3306 19.564 17.816C19.1805 18.5686 18.5686 19.1805 17.816 19.564C17.3306 19.8113 16.8139 19.9099 16.2518 19.9558C15.7106 20 15.0463 20 14.2413 20H5.75868C4.95372 20 4.28937 20 3.74818 19.9558C3.18608 19.9099 2.66937 19.8113 2.18404 19.564C1.43139 19.1805 0.81947 18.5686 0.43597 17.816C0.18868 17.3306 0.0901202 16.8139 0.0441902 16.2518C-1.97701e-05 15.7106 -9.69919e-06 15.0463 3.00809e-07 14.2413V10C3.00809e-07 9.4477 0.44772 9 1 9Z" fill="#003974"/>
</svg>
